P3
# Created by GIMP version 2.10.22 PNM plug-in
6 8
255
255
255
255
255
255
255
255
255
255
255
255
255
255
255
255
255
255
255
255
255
255
181
181
181
0
0
0
52
52
52
181
181
181
255
255
255
255
255
255
0
0
0
255
255
255
255
255
255
0
0
0
255
255
255
255
255
255
52
52
52
255
255
255
255
255
255
0
0
0
255
255
255
255
255
255
181
181
181
255
255
255
255
255
255
52
52
52
255
255
255
255
255
255
0
0
0
255
255
255
255
255
255
0
0
0
255
255
255
255
255
255
181
181
181
0
0
0
52
52
52
181
181
181
255
255
255
255
255
255
255
255
255
255
255
255
255
255
255
255
255
255
255
255
255
